<?xml version="1.0" encoding="utf-8"?>
<!-- Generator: Adobe Illustrator 24.2.1, SVG Export Plug-In . SVG Version: 6.00 Build 0)  -->
<svg version="1.1" id="Layer_1" xmlns="http://www.w3.org/2000/svg" xmlns:xlink="http://www.w3.org/1999/xlink" x="0px" y="0px"
	 viewBox="0 0 512 512" style="enable-background:new 0 0 512 512;" xml:space="preserve">
<style type="text/css">
	.st0{fill:#14568C;}
</style>
<g>
	<g>
		<g>
			<path class="st0" d="M341.6,290.7c2.6-3.2,3.2-7.6,1.4-11.3l-0.6-1.2c4.5-6.2,10.3-16,10.3-32.8c0-7.6,2.2-10.7,2.6-11
				c3.3-0.8,6-3.2,7.3-6.4c1.2-2.9,11.4-29.1,11.4-46.6c0-0.9-0.1-1.8-0.3-2.6c-1.2-4.7-4.4-11.5-10.3-15.5v-56.6
				c0-34.4-10.5-48.4-21.6-56.6C339.7,33.5,322,0,256.7,0C190.6,0,150,62.1,150,106.7v56.6c-5.9,4-9.2,10.9-10.3,15.5
				c-0.2,0.9-0.3,1.7-0.3,2.6c0,17.6,10.2,43.7,11.4,46.6c1.3,3.2,3.1,5.3,6.5,6.1c1.2,0.6,3.4,3.7,3.4,11.2
				c0,20.3,15.2,42.8,31.5,57.8c-2.2,14-12.7,50.8-34.9,60.1l-94.7,31.6c-24.3,8.1-42.6,27.8-48.8,52.7L1,498.8
				c-0.8,3.2-0.1,6.6,2,9.2s5.1,4.1,8.4,4.1h0l276-0.3c5.9,0,10.6-4.9,10.6-10.8v-128c0-11.8,6.6-22.6,17.3-28.2
				c3-1.6,5.1-4.5,5.6-7.8C323.5,320,330.7,304,341.6,290.7z"/>
			<path class="st0" d="M500.7,362.2H490v-10.7c0-41.2-33.5-74.7-74.7-74.7s-74.7,33.5-74.7,74.7v10.7H330
				c-5.9,0-10.7,4.8-10.7,10.7v128c0,5.9,4.8,10.7,10.7,10.7h170.7c5.9,0,10.7-4.8,10.7-10.7v-128
				C511.3,367,506.6,362.2,500.7,362.2z M426,444.3v14c0,5.9-4.8,10.7-10.7,10.7s-10.7-4.8-10.7-10.7v-14
				c-6.3-3.7-10.7-10.3-10.7-18c0-11.8,9.6-21.3,21.3-21.3s21.3,9.6,21.3,21.3C436.7,434,432.3,440.6,426,444.3z M468.7,362.2H362
				v-10.7c0-29.4,23.9-53.3,53.3-53.3s53.3,23.9,53.3,53.3L468.7,362.2L468.7,362.2z"/>
		</g>
	</g>
</g>
</svg>
